<?xml version="1.0" standalone="no"?><!DOCTYPE svg PUBLIC "-//W3C//DTD SVG 1.1//EN" "http://www.w3.org/Graphics/SVG/1.1/DTD/svg11.dtd"><svg t="1746019370246" class="icon" viewBox="0 0 1024 1024" version="1.1" xmlns="http://www.w3.org/2000/svg" p-id="22876" xmlns:xlink="http://www.w3.org/1999/xlink" width="200" height="200"><path d="M379.477333 136.746667h235.733334L370.517333 861.738667a37.589333 37.589333 0 0 1-35.626666 25.6h-183.466667a37.504 37.504 0 0 1-35.541333-49.536L343.893333 162.304a37.589333 37.589333 0 0 1 35.626667-25.557333z" fill="#01579B" p-id="22877"></path><path d="M722.005333 623.061333h-373.76a17.28 17.28 0 0 0-11.818666 29.952l240.170666 224.128c6.954667 6.528 16.213333 10.154667 25.728 10.154667h211.626667l-91.946667-264.234667z" fill="#1976D2" p-id="22878"></path><path d="M680.533333 162.261333a37.504 37.504 0 0 0-35.541333-25.472H382.293333a37.546667 37.546667 0 0 1 35.584 25.472l227.968 675.498667a37.546667 37.546667 0 0 1-35.584 49.536h262.698667a37.504 37.504 0 0 0 35.584-49.493333L680.533333 162.304z" fill="#29B6F6" p-id="22879"></path></svg>