<?xml version="1.0" standalone="no"?><!DOCTYPE svg PUBLIC "-//W3C//DTD SVG 1.1//EN" "http://www.w3.org/Graphics/SVG/1.1/DTD/svg11.dtd"><svg t="1746019289371" class="icon" viewBox="0 0 1024 1024" version="1.1" xmlns="http://www.w3.org/2000/svg" p-id="18807" xmlns:xlink="http://www.w3.org/1999/xlink" width="200" height="200"><path d="M497.46 400.18c-0.41-86.017-1.23-260.916-5.94-337.306-1.434 1.638-2.662 3.072-4.3 4.915-28.263 22.118-173.466 143.77-185.14 390.963-9.42 195.994 117.76 324.608 170.803 369.664 13.107-56.525 29.901-202.752 25.395-350.413-0.614-10.854-0.614-38.912-0.819-77.824z" fill="#5AAF4F" p-id="18808"></path><path d="M515.277 833.536c-2.663 12.083-5.735 23.757-9.011 31.13l-4.71 9.216c7.577 37.273 6.553 79.052 6.553 79.052l25.19 8.397s-5.12-66.56 2.048-98.713c0.41-1.434 0.615-2.663 1.024-4.096-6.963-6.35-16.179-16.59-21.094-24.986z" fill="#B8B79C" p-id="18809"></path><path d="M714.957 394.035C665.395 176.333 548.659 104.858 536.167 77.62a4.46 4.46 0 0 1-1.025-1.638c2.868 56.115 4.506 155.443 5.325 323.993v0.41c0.205 36.864 0.205 66.15 0.615 76.186 2.867 97.28-3.072 183.705-8.602 239.001 0.614 54.477 19.866 101.99 31.13 109.978 4.505-3.687 9.83-8.192 15.564-13.517 0.615-0.41 1.024-0.614 1.024-0.614v-0.41C639.59 756.531 753.46 619.11 714.957 394.035z" fill="#439744" p-id="18810"></path></svg>