<?xml version="1.0" standalone="no"?><!DOCTYPE svg PUBLIC "-//W3C//DTD SVG 1.1//EN" "http://www.w3.org/Graphics/SVG/1.1/DTD/svg11.dtd"><svg t="1746019261482" class="icon" viewBox="0 0 1024 1024" version="1.1" xmlns="http://www.w3.org/2000/svg" p-id="16584" xmlns:xlink="http://www.w3.org/1999/xlink" width="200" height="200"><path d="M1019.99 780.47q-5.32-10.64-26.07-31.92t-72.88-56.39q-64.91-44.69-134.06-79.8-48.95-131.93-187.26-339.4Q450.76 50.59 257.12 87.83q-21.28-21.28-43.62-40.44-26.6-21.27-73.41-35.63Q93.28-2.61 56.03 0.58 25.18 3.77 10.28 22.92-8.87 42.08 7.62 87.29q16.49 45.22 93.1 147.36 14.89 43.63 20.21 68.63 5.32 25 5.32 36.71-1.06 47.87 53.2 118.1L145.4 574.06q-20.21 81.92 6.92 164.38 27.13 82.46 68.63 121.83 21.27 18.08 37.23 19.14 15.96 1.07 24.48-2.13 18.08-6.39 31.38-27.66t21.81-68.1l20.22 48.94q26.6 69.16 54.8 109.06 28.19 39.9 57.99 52.67 12.77 5.32 25 0 12.24-5.32 17.56-18.09 5.32-12.77 1.06-25-4.25-12.24-17.03-18.62-7.45-2.13-27.13-27.13-19.69-25-49.47-98.41-48.94-125.55-73.41-172.36-6.38-9.58-16.49-14.37-10.11-4.78-21.28-2.66-11.17 2.13-18.62 11.17-7.45 9.05-8.51 20.75-3.19 71.29-9.05 107.46-5.86 36.18-11.18 48.95-23.4-27.67-43.62-88.84-20.22-61.18-6.38-121.83l39.36-133q4.26-17.02-6.38-30.85-32.98-40.43-42.03-61.71-9.04-21.28-7.98-27.66 1.07-46.82-29.79-133-1.06-5.32-5.32-9.58-41.49-55.32-61.18-86.17Q77.3 80.38 73.05 67.61q22.35 1.06 51.61 10.11 29.26 9.05 45.22 20.75 26.59 23.4 52.13 50 13.83 13.83 32.98 9.58 158.53-42.56 288.34 153.21 140.44 209.6 184.06 337.28 5.32 12.76 18.09 19.15 71.29 35.11 137.25 80.86l21.28 14.89H798.68q-21.28 0-30.33 19.68-9.04 19.68 3.73 35.64 51.07 60.65 104.27 118.1 13.83 13.83 32.98 9.58t24.47-23.41q5.32-19.15-7.44-32.98-27.67-28.73-53.2-58.52h117.03q19.15-1.07 28.73-17.56 9.58-16.49 1.06-33.51zM294.37 243.16q20.21 35.12 30.85 50.01 7.45 12.77 15.96 24.47 8.51 11.71 15.95 24.47l2.13-2.12q12.77-9.58 16.5-34.05 3.73-24.47-13.31-46.82-11.7-13.83-34.05-15.96-22.34-2.13-34.04 0z" fill="#666666" p-id="16585"></path></svg>