<?xml version="1.0" standalone="no"?><!DOCTYPE svg PUBLIC "-//W3C//DTD SVG 1.1//EN" "http://www.w3.org/Graphics/SVG/1.1/DTD/svg11.dtd"><svg t="1746019135887" class="icon" viewBox="0 0 1024 1024" version="1.1" xmlns="http://www.w3.org/2000/svg" p-id="10258" xmlns:xlink="http://www.w3.org/1999/xlink" width="200" height="200"><path d="M595.7 71.2l33.6 7.6 27.3 9.8 21.9 11.2 17 12.1 12.5 12.5 9.4 12.5 5.8 12.5 3.6 11.2 1.3 9.8 0.9 7.6-0.4 4.9v199.2l-1.8 23.3-4.9 20.6-8.1 17-9.8 14.3-11.2 11.7-12.5 9.4-13 7.2-13 5.4-12.5 3.6-11.2 2.7-9.8 1.3-8.1 0.9H391.6l-26 1.8-21.9 5.4-18.8 8.1-15.2 10.2-12.1 12.1-9.8 13-7.6 13.4-5.4 13.9-3.6 13-2.7 12.1-1.3 9.8-0.9 8.1v114.1h-83.7l-8.1-0.9-10.3-2.7-12.1-4.5-13-6.7-13.4-9.8-13.4-13.4-13-17-12.1-21.9L77 630.2l-7.6-32.7-5.4-40.7-1.8-46.1 2.2-45.7 5.8-38.9 9-32.2 12.1-26.4 13.4-21.5 14.8-16.6 15.7-12.1 15.7-9 14.8-5.8L179 299l12.1-1.8 9-0.4h5.8l2.2 0.4h304.3v-30.9H294.9l-0.4-102.5-0.9-13.9 1.8-12.5 4-11.6 6.3-10.3 9.4-9.8 11.6-8.5 14.3-7.6 16.6-6.7 18.8-5.4 21.5-4.5 24.2-4 26.4-2.2 28.6-1.3 31.3-0.9 47.4 1.8 39.9 4.8zM361.2 145l-8.5 12.5-3.1 15.2 3.1 15.2 8.5 12.5 12.5 8.1 15.2 3.6 15.2-3.6 12.5-8.1 8.5-12.5 3.1-15.2-3.6-15.7-8.5-12.1-12.5-8.1-15.2-3.6-15.2 3.6-12 8.2z" fill="#0075AA" p-id="10259"></path><path d="M849 292.2l10.3 2.2 12.1 4.5 13 6.7 13.4 9.8 13.4 13 13 17.5 12.1 21.9 10.3 27.3 8.1 32.7 5.4 38.9 1.8 45.7-2.2 45.7-5.8 38.9-9 32.2-12.1 26.4-13.4 21.5-14.8 17-15.7 12.5-15.7 9-14.8 5.8L845 725l-12.1 1.8-9 0.9-5.8-0.4H511.6v30.4h217.5l0.4 102.9 0.9 13.4-1.8 12.5-4 11.6-6.3 10.7-9.4 9.4-11.6 9-14.3 7.6-16.6 6.3-18.8 5.4-21.5 4.9-23.7 3.6-26.4 2.7-28.6 1.3-31.3 0.4-47.4-1.3-39.8-5.4-33.6-7.6-27.3-9.4-22-11.1-17-12.5-12.5-12.5-9.4-12.5-5.8-12.5-3.6-11.2-1.3-9.4-0.9-7.6 0.4-4.9V642.2l1.8-23.7 4.9-20.1 8.1-17 9.8-14.3 11.2-12.1 12.5-9 13-7.6 13-5.4 12.1-3.6 11.2-2.2 9.8-1.3 8.1-0.9 4.9-0.4h218l26-1.8 21.9-5.4 18.8-7.6 15.2-10.3 12.5-12.1 9.8-13 7.6-13.4 5.4-13.4 3.6-13 2.7-12.1 1.3-10.3 0.9-8.1V290.9h77.9l5.4 0.4 5.7 0.9zM607.8 823.9l-8.5 12.5-3.1 15.2 3.1 15.2 8.5 12.5 12.5 8.5 15.2 3.1 15.2-3.1 12.5-8.5 8.5-12.5 3.1-15.2-3.1-15.2-8.5-12.5-12.5-8.5-15.2-3.1-15.2 3.1-12.5 8.5z" fill="#FFD400" p-id="10260"></path></svg>