<?xml version="1.0" encoding="utf-8"?><!DOCTYPE svg PUBLIC "-//W3C//DTD SVG 1.1//EN" "http://www.w3.org/Graphics/SVG/1.1/DTD/svg11.dtd"><svg version="1.1" xmlns="http://www.w3.org/2000/svg" width="348.75" height="174.84375" viewBox="0 0 348.75 174.84375"><g><g><rect fill="#FFFFFF" width="0" height="0" /></g><g transform="translate(0,0)"><path fill="#000000" d="M83.44 30.47L84.84 29.06Q101.72 33.75 101.72 48.75L101.72 48.75L100.31 50.16L101.72 54.38L97.50 62.81L98.91 64.22L98.91 65.63L86.25 107.81Q96.09 123.75 118.59 142.97L118.59 142.97L117.19 144.38L117.19 145.78Q93.75 145.78 83.44 114.84L83.44 114.84L80.63 114.84Q66.56 134.53 59.53 134.53L59.53 134.53L55.31 133.13L55.31 130.31Q73.13 113.91 76.41 100.78L76.41 100.78L66.56 89.53L37.03 107.81Q30 115.31 30 137.34L30 137.34L25.78 140.16L24.38 140.16Q20.16 138.75 20.16 131.72L20.16 131.72L22.97 120.47L21.56 120.47L13.13 127.50L11.72 127.50L7.50 123.28L7.50 120.47L8.91 119.06L7.50 117.66L7.50 116.25Q14.06 103.59 21.56 103.59L21.56 103.59L22.97 105L24.38 105L28.59 62.81L7.50 67.03L6.09 65.63L6.09 64.22Q6.09 61.88 24.38 55.78L24.38 55.78L30 50.16L30 38.91L28.59 37.50L28.59 36.09L30 34.69L31.41 34.69L39.84 44.53L41.25 43.13L42.66 43.13Q49.69 44.53 49.69 48.75L49.69 48.75L39.84 60L32.81 102.19L87.66 67.03L90.47 47.34L90.47 41.72L83.44 30.47ZM82.03 78.28L67.97 85.31Q70.31 91.41 77.81 96.56L77.81 96.56Q81.09 96.56 84.84 78.28L84.84 78.28L82.03 78.28Z"/></g><g transform="translate(116.25,0)"><path fill="#000000" d="M51.09 20.63L52.50 20.63Q64.69 20.63 73.13 30L73.13 30L105 25.78L108.28 30L108.28 30.94Q106.88 35.16 97.97 37.97L97.97 37.97L96.56 36.56L94.69 36.56L86.25 37.97L86.25 36.56Q59.06 43.59 29.06 65.63L29.06 65.63L26.25 65.63L26.25 64.22L34.69 54.84L34.69 53.44Q27.66 53.44 9.84 60L9.84 60Q5.63 59.06 5.63 52.03L5.63 52.03L5.63 51.09L17.34 46.88Q37.97 46.88 56.72 33.75L56.72 33.75L56.72 32.34Q49.69 31.41 49.69 22.03L49.69 22.03L51.09 20.63ZM75.94 54.84L75.94 54.84L77.34 54.84L80.16 57.66L80.16 59.06L39.38 82.50Q39.38 86.72 33.28 86.72L33.28 86.72L33.28 87.66Q42.19 87.66 42.19 90.47L42.19 90.47Q42.19 96.56 29.06 108.75L29.06 108.75L30.47 110.16L30.47 111.56L27.66 114.38L21.56 107.34L21.56 102.19L30.47 93.28L27.66 93.28L22.97 94.22L21.56 93.28L21.56 89.06Q29.53 80.16 75.94 54.84ZM89.06 59.06L94.69 54.84L97.97 54.84L97.97 56.25L94.69 66.56L94.69 69.38L96.56 69.38L112.50 61.41L113.91 62.81L113.91 64.22Q113.44 68.91 90.47 81.09L90.47 81.09Q82.97 88.13 82.97 93.28L82.97 93.28L82.97 99.84Q90.47 100.78 90.47 106.41L90.47 106.41L86.25 115.31Q97.97 120.47 97.97 123.28L97.97 123.28L94.69 133.59L102.19 140.16Q99.84 145.78 91.88 145.78L91.88 145.78L90.47 144.38L90.47 142.97L91.88 138.75L90.47 138.75L84.84 133.59L84.84 128.44L86.25 121.88Q81.56 121.88 78.75 116.72L78.75 116.72L78.75 110.16L80.16 100.78Q75.94 100.31 75.94 90.47L75.94 90.47L75.94 83.91Q71.25 83.91 71.25 81.09L71.25 81.09Q77.81 80.16 89.06 59.06L89.06 59.06ZM62.81 56.25L62.81 56.25L62.81 59.06Q33.28 79.69 21.56 79.69L21.56 79.69L17.34 79.69L14.53 77.34L14.53 75.94Q45 60.47 62.81 56.25ZM43.59 87.66L45 86.72L46.41 87.66L48.28 87.66L55.31 86.72L56.72 87.66L56.72 89.06Q54.84 95.63 52.50 95.63L52.50 95.63L48.28 95.63Q43.59 94.22 43.59 87.66L43.59 87.66ZM60 141.56L65.63 86.72L69.84 86.72L73.13 127.03Q73.13 137.34 62.81 144.38L62.81 144.38L60 141.56ZM42.19 116.72L45 114.38L51.09 119.53Q51.09 127.50 33.28 132.19L33.28 132.19L30.47 129.84L30.47 128.44L31.88 127.03L31.88 125.63L33.28 127.03L34.69 127.03L43.59 119.53L42.19 118.13L42.19 116.72Z"/></g><g transform="translate(232.5,0)"><path fill="#000000" d="M97.50 23.91L97.50 23.91L104.53 23.91L110.16 29.53L110.16 42.19Q110.16 52.50 86.25 70.31L86.25 70.31L80.63 85.78L80.63 87.19L82.03 87.19L101.72 77.34L108.75 77.34L111.56 80.16Q96.56 86.25 87.66 95.63L87.66 95.63L80.63 94.22Q80.63 96.09 56.72 106.88L56.72 106.88Q44.06 137.81 35.63 137.81L35.63 137.81Q24.38 132.19 24.38 123.75L24.38 123.75L24.38 120.94Q24.38 109.69 32.81 105.47L32.81 105.47L39.84 105.47Q42.66 105.47 42.66 109.69L42.66 109.69Q52.50 102.66 52.50 88.59L52.50 88.59L51.09 87.19L49.69 87.19L24.38 104.06L22.97 102.66L21.56 102.66Q21.56 99.38 52.50 71.72L52.50 71.72Q53.91 63.28 56.72 63.28L56.72 63.28L65.16 63.28Q69.38 63.28 69.38 68.91L69.38 68.91Q77.81 67.50 77.81 49.22L77.81 49.22Q87.19 23.91 97.50 23.91ZM98.91 33.75L96.09 33.75L90.47 54.84Q100.31 45.94 100.31 37.97L100.31 37.97L98.91 33.75ZM38.44 43.59L38.44 43.59Q42.19 43.59 44.06 57.66L44.06 57.66Q29.06 87.66 18.75 95.63L18.75 95.63L17.34 94.22L17.34 92.81Q35.63 45 38.44 43.59ZM73.59 78.75L70.78 78.75Q60.94 85.78 60.94 95.63L60.94 95.63L59.53 97.03L60.94 98.44L73.59 91.41L73.59 88.59Q69.38 88.59 69.38 85.78L69.38 85.78Q70.31 80.16 73.59 80.16L73.59 80.16L73.59 78.75ZM67.97 115.31L91.88 105.47L103.13 105.47Q103.13 115.31 90.47 129.38L90.47 129.38Q97.50 130.78 97.50 133.59L97.50 133.59Q89.53 137.81 82.03 137.81L82.03 137.81L79.22 133.59L79.22 130.78Q79.22 123.28 86.25 113.91L86.25 113.91L84.84 113.91Q64.69 126.56 59.53 126.56L59.53 126.56Q56.25 126.56 55.31 120.94L55.31 120.94Q55.31 117.19 66.56 108.28L66.56 108.28L67.97 108.28L70.78 111.09L67.97 113.91L67.97 115.31ZM28.59 119.53L28.59 119.53L28.59 126.56Q31.88 126.56 35.63 109.69L35.63 109.69L34.22 109.69Q28.59 112.03 28.59 119.53ZM32.81 129.38L32.81 129.38L34.22 130.78L35.63 130.78Q43.13 121.41 44.06 112.50L44.06 112.50L42.66 112.50Q32.81 124.22 32.81 129.38ZM10.31 135L10.31 122.34Q20.16 129.38 20.16 139.22L20.16 139.22L18.75 140.63L15.94 140.63L10.31 135Z"/></g></g></svg>