<?xml version="1.0" standalone="no"?><!DOCTYPE svg PUBLIC "-//W3C//DTD SVG 1.1//EN" "http://www.w3.org/Graphics/SVG/1.1/DTD/svg11.dtd"><svg t="1721630695382" class="icon" viewBox="0 0 1024 1024" version="1.1" xmlns="http://www.w3.org/2000/svg" p-id="11301" xmlns:xlink="http://www.w3.org/1999/xlink" width="200" height="200"><path d="M585.142857 785.714286l0-108.571429q0-8-5.428571-13.428571t-12.857143-5.428571l-109.714286 0q-7.428571 0-12.857143 5.428571t-5.428571 13.428571l0 108.571429q0 8 5.428571 13.428571t12.857143 5.428571l109.714286 0q7.428571 0 12.857143-5.428571t5.428571-13.428571zm-1.142857-213.714286l10.285714-262.285714q0-6.857143-5.714286-10.857143-7.428571-6.285714-13.714286-6.285714l-125.714286 0q-6.285714 0-13.714286 6.285714-5.714286 4-5.714286 12l9.714286 261.142857q0 5.714286 5.714286 9.428571t13.714286 3.714286l105.714286 0q8 0 13.428571-3.714286t6-9.428571zm-8-533.714286l438.857143 804.571429q20 36-1.142857 72-9.714286 16.571429-26.571429 26.285714t-36.285714 9.714286l-877.714286 0q-19.428571 0-36.285714-9.714286t-26.571429-26.285714q-21.142857-36-1.142857-72l438.857143-804.571429q9.714286-17.714286 26.857143-28t37.142857-10.285714 37.142857 10.285714 26.857143 28z" p-id="11302" fill="#f4ea2a"></path></svg>