<svg width="1909" height="867" xmlns="http://www.w3.org/2000/svg" xmlns:xlink="http://www.w3.org/1999/xlink" xml:space="preserve" overflow="hidden"><g transform="translate(-1246 -753)"><rect x="2180.5" y="873.5" width="39.0002" height="194" stroke="#C40D2E" stroke-width="4.58333" stroke-miterlimit="8" fill="#C40D2E"/><rect x="2103.5" y="950.5" width="194" height="39.0002" stroke="#C40D2E" stroke-width="4.58333" stroke-miterlimit="8" fill="#C40D2E"/><rect x="2083.5" y="795.5" width="39.0002" height="194" stroke="#C40D2E" stroke-width="4.58333" stroke-miterlimit="8" fill="#C40D2E"/><rect x="2278.5" y="950.5" width="39.0002" height="195" stroke="#C40D2E" stroke-width="4.58333" stroke-miterlimit="8" fill="#C40D2E"/><rect x="2025.5" y="1048.5" width="194" height="38.0001" stroke="#C40D2E" stroke-width="4.58333" stroke-miterlimit="8" fill="#C40D2E"/><rect x="2180.5" y="853.5" width="195" height="38.9998" stroke="#C40D2E" stroke-width="4.58333" stroke-miterlimit="8" fill="#C40D2E"/><rect x="2083.5" y="755.5" width="156" height="38.9998" stroke="#C40D2E" stroke-width="4.58333" stroke-miterlimit="8" fill="#C40D2E"/><rect x="2161.5" y="1145.5" width="156" height="39.0002" stroke="#C40D2E" stroke-width="4.58333" stroke-miterlimit="8" fill="#C40D2E"/><rect x="1986.5" y="931.5" width="38.9999" height="155" stroke="#C40D2E" stroke-width="4.58333" stroke-miterlimit="8" fill="#C40D2E"/><rect x="2375.5" y="853.5" width="38.9998" height="156" stroke="#C40D2E" stroke-width="4.58333" stroke-miterlimit="8" fill="#C40D2E"/><rect x="2083.5" y="1048.5" width="39.0002" height="136" stroke="#C40D2E" stroke-width="4.58333" stroke-miterlimit="8" fill="#C40D2E"/><rect x="2278.5" y="756.5" width="39.0002" height="136" stroke="#C40D2E" stroke-width="4.58333" stroke-miterlimit="8" fill="#C40D2E"/><rect x="1986.5" y="853.5" width="136" height="38.9998" stroke="#C40D2E" stroke-width="4.58333" stroke-miterlimit="8" fill="#C40D2E"/><rect x="2278.5" y="1048.5" width="136" height="38.0001" stroke="#C40D2E" stroke-width="4.58333" stroke-miterlimit="8" fill="#C40D2E"/><rect x="1986.5" y="1145.5" width="136" height="39.0002" stroke="#C40D2E" stroke-width="4.58333" stroke-miterlimit="8" fill="#C40D2E"/><rect x="2278.5" y="755.5" width="136" height="38.9998" stroke="#C40D2E" stroke-width="4.58333" stroke-miterlimit="8" fill="#C40D2E"/><rect x="1986.5" y="755.5" width="38.9999" height="136" stroke="#C40D2E" stroke-width="4.58333" stroke-miterlimit="8" fill="#C40D2E"/><rect x="2375.5" y="1048.5" width="38.9998" height="136" stroke="#C40D2E" stroke-width="4.58333" stroke-miterlimit="8" fill="#C40D2E"/><path d="M1470.61 1279.5 1563.13 1509.26 1649.96 1291.96 1690.5 1291.96 1563.13 1612.5 1470.65 1382.22 1378.1 1612.5 1250.5 1291.96 1291.04 1291.96 1378.52 1511.71 1470.61 1279.5Z" stroke="#C40D2E" stroke-width="4.58333" stroke-miterlimit="8" fill="#C40D2E" fill-rule="evenodd"/><path d="M1940.68 1278.5C1957.66 1278.5 1974.87 1282.16 1992.34 1289.48 2009.8 1296.79 2024.32 1307.93 2035.91 1322.89L2001.39 1350.46C1992.27 1341.03 1984.01 1333.99 1976.6 1329.36 1969.19 1324.72 1958.49 1322.41 1944.48 1322.41 1929.18 1322.41 1916.76 1325.85 1907.23 1332.74 1897.71 1339.63 1892.95 1348.51 1892.95 1359.37 1892.95 1368.77 1897.1 1377.08 1905.42 1384.3 1913.74 1391.51 1927.92 1399.41 1947.96 1407.99 1967.99 1416.56 1983.59 1424.55 1994.75 1431.94 2005.91 1439.33 2015.07 1447.5 2022.24 1456.44 2029.41 1465.37 2034.74 1474.8 2038.25 1484.71 2041.75 1494.62 2043.5 1505.1 2043.5 1516.15 2043.5 1541.99 2034.08 1564 2015.23 1582.2 1996.38 1600.4 1973.57 1609.5 1946.8 1609.5 1920.69 1609.5 1897.64 1602.39 1877.65 1588.16 1857.65 1573.93 1842.27 1552.59 1831.5 1524.13L1874.1 1512.18C1889.6 1547.14 1913.35 1564.62 1945.33 1564.62 1960.84 1564.62 1973.73 1560 1984.01 1550.76 1994.29 1541.52 1999.44 1529.84 1999.44 1515.74 1999.44 1507.31 1996.74 1498.84 1991.35 1490.33 1985.96 1481.81 1979.26 1474.8 1971.26 1469.29 1963.25 1463.78 1950.52 1457.45 1933.06 1450.32 1915.59 1443.18 1902.15 1436.65 1892.74 1430.72 1883.32 1424.78 1875.17 1417.72 1868.29 1409.51 1861.41 1401.3 1856.38 1393.14 1853.18 1385.02 1849.99 1376.89 1848.39 1368.2 1848.39 1358.94 1848.39 1336.67 1857.37 1317.7 1875.32 1302.02 1893.27 1286.34 1915.06 1278.5 1940.68 1278.5Z" stroke="#C40D2E" stroke-width="4.58333" stroke-miterlimit="8" fill="#C40D2E" fill-rule="evenodd"/><path d="M2547.29 1279.5C2591.78 1279.5 2630.1 1295.58 2662.26 1327.74 2694.42 1359.89 2710.5 1398.08 2710.5 1442.31 2710.5 1489.13 2694.62 1528.7 2662.85 1561.02 2631.08 1593.34 2592.09 1609.5 2545.88 1609.5 2500.3 1609.5 2461.51 1593.22 2429.5 1560.66 2397.5 1528.09 2381.5 1488.65 2381.5 1442.31 2381.5 1397.6 2397.74 1359.28 2430.21 1327.37 2462.68 1295.46 2501.7 1279.5 2547.29 1279.5ZM2544.01 1322.79C2511.07 1322.79 2482.85 1334.69 2459.36 1358.5 2435.86 1382.31 2424.12 1410.89 2424.12 1444.26 2424.12 1478.11 2436.18 1506.73 2460.3 1530.14 2484.41 1553.54 2513.96 1565.24 2548.93 1565.24 2581.09 1565.24 2608.83 1553.3 2632.17 1529.41 2655.51 1505.52 2667.18 1477.13 2667.18 1444.26 2667.18 1410.08 2655.32 1381.29 2631.59 1357.89 2607.86 1334.49 2578.67 1322.79 2544.01 1322.79Z" stroke="#C40D2E" stroke-width="4.58333" stroke-miterlimit="8" fill="#C40D2E" fill-rule="evenodd"/><path d="M1735.5 1279.5 1777.5 1279.5 1777.5 1612.5 1735.5 1612.5 1735.5 1279.5Z" stroke="#C40D2E" stroke-width="4.58333" stroke-miterlimit="8" fill="#C40D2E" fill-rule="evenodd"/><path d="M2104.5 1278.5 2176.82 1278.5C2234.08 1278.5 2276.68 1295.3 2304.61 1328.9 2332.54 1362.51 2346.5 1400.87 2346.5 1444 2346.5 1487.48 2332.07 1525.93 2303.2 1559.36 2274.34 1592.79 2232.37 1609.5 2177.29 1609.5L2104.5 1609.5 2104.5 1278.5ZM2145.22 1322.67 2145.22 1564.81 2147.56 1564.81C2177.83 1564.81 2200.61 1563.3 2215.9 1560.27 2231.2 1557.23 2245.71 1550.61 2259.44 1540.39 2273.17 1530.17 2284.09 1516.62 2292.2 1499.73 2300.32 1482.84 2304.37 1464.27 2304.37 1444 2304.37 1418.54 2297.9 1395.5 2284.95 1374.89 2272 1354.28 2256.51 1340.42 2238.49 1333.32 2220.47 1326.22 2196.24 1322.67 2165.82 1322.67L2145.22 1322.67Z" stroke="#C40D2E" stroke-width="4.58333" stroke-miterlimit="8" fill="#C40D2E" fill-rule="evenodd"/><path d="M220.113 0 312.626 229.068 399.462 12.4227 440 12.4227 312.626 332 220.152 102.414 127.6 332 0 12.4227 40.5414 12.4227 128.019 231.516 220.113 0Z" stroke="#C40D2E" stroke-width="4.58333" stroke-miterlimit="8" fill="#C40D2E" fill-rule="evenodd" transform="matrix(1 0 0 -1 2710.5 1609.5)"/></g></svg>